<svg width="33" height="33" viewBox="0 0 33 33" fill="none" xmlns="http://www.w3.org/2000/svg">
<path d="M22.3438 30.9375C22.9819 30.9375 23.594 30.684 24.0452 30.2327C24.4965 29.7815 24.75 29.1694 24.75 28.5312C24.75 27.8931 24.4965 27.281 24.0452 26.8298C23.594 26.3785 22.9819 26.125 22.3438 26.125C21.7056 26.125 21.0935 26.3785 20.6423 26.8298C20.191 27.281 19.9375 27.8931 19.9375 28.5312C19.9375 29.1694 20.191 29.7815 20.6423 30.2327C21.0935 30.684 21.7056 30.9375 22.3438 30.9375ZM11.3438 30.9375C11.9819 30.9375 12.594 30.684 13.0452 30.2327C13.4965 29.7815 13.75 29.1694 13.75 28.5312C13.75 27.8931 13.4965 27.281 13.0452 26.8298C12.594 26.3785 11.9819 26.125 11.3438 26.125C10.7056 26.125 10.0935 26.3785 9.64227 26.8298C9.19102 27.281 8.9375 27.8931 8.9375 28.5312C8.9375 29.1694 9.19102 29.7815 9.64227 30.2327C10.0935 30.684 10.7056 30.9375 11.3438 30.9375ZM6.655 5.4175L6.38 8.78625C6.325 9.4325 6.83375 9.96875 7.48 9.96875H28.5312C29.1087 9.96875 29.59 9.52875 29.6312 8.95125C29.81 6.5175 27.9537 4.5375 25.52 4.5375H8.62125C8.48375 3.9325 8.20875 3.355 7.7825 2.87375C7.095 2.145 6.1325 1.71875 5.1425 1.71875H2.75C2.18625 1.71875 1.71875 2.18625 1.71875 2.75C1.71875 3.31375 2.18625 3.78125 2.75 3.78125H5.1425C5.56875 3.78125 5.9675 3.96 6.25625 4.2625C6.545 4.57875 6.6825 4.99125 6.655 5.4175ZM28.2013 12.0312H7.10875C6.53125 12.0312 6.06375 12.4712 6.00875 13.035L5.51375 19.0163C5.46654 19.5704 5.53492 20.1284 5.71454 20.6548C5.89416 21.1812 6.18112 21.6645 6.55724 22.0743C6.93337 22.484 7.39046 22.8112 7.8996 23.0351C8.40873 23.259 8.95881 23.3747 9.515 23.375H24.805C26.8675 23.375 28.6825 21.6838 28.8337 19.6213L29.2875 13.2C29.3006 13.0502 29.2821 12.8993 29.2333 12.7571C29.1844 12.6149 29.1063 12.4845 29.0039 12.3744C28.9016 12.2642 28.7772 12.1768 28.639 12.1177C28.5007 12.0586 28.3516 12.0291 28.2013 12.0312Z" fill="black"/>
</svg>
