<svg width="49" height="48" viewBox="0 0 49 48" fill="none" xmlns="http://www.w3.org/2000/svg">
<path d="M49 23.9938C49 10.741 38.0324 0 24.5 0C10.9676 0 0 10.741 0 23.9938C0 35.972 8.95782 45.8975 20.6719 47.6971V30.9295H14.4511V23.9938H20.6719V18.7077C20.6719 12.6951 24.3278 9.37257 29.9264 9.37257C32.6061 9.37257 35.4102 9.8412 35.4102 9.8412V15.7459H32.319C29.2756 15.7459 28.3281 17.597 28.3281 19.495V23.9938H35.123L34.0369 30.9295H28.3281V47.6971C40.0422 45.8975 49 35.972 49 23.9938Z" fill="#1877F2"/>
<path d="M34.0368 30.9295L35.123 23.9938H28.3281V19.495C28.3281 17.597 29.2755 15.7459 32.3189 15.7459H35.4101V9.8412C35.4101 9.8412 32.606 9.37258 29.9263 9.37258C24.3277 9.37258 20.6718 12.6951 20.6718 18.7077V23.9938H14.4511V30.9295H20.6718V47.6971C21.9207 47.8892 23.1984 47.9876 24.5 47.9876C25.8015 47.9876 27.0792 47.8892 28.3281 47.6971V30.9295H34.0368Z" fill="white"/>
</svg>
