<svg width="33" height="33" viewBox="0 0 33 33" fill="none" xmlns="http://www.w3.org/2000/svg">
<path d="M18.6313 27.7228C18.2738 27.874 17.8888 28.0115 17.4763 28.149L15.3038 28.864C9.84501 30.624 6.97126 29.1528 5.19751 23.694L3.43751 18.2627C1.67751 12.804 3.13501 9.9165 8.59376 8.1565L10.7113 7.45525C10.45 8.11525 10.23 8.8715 10.0238 9.724L8.67626 15.4853C7.16376 21.9615 9.37751 25.5365 15.8538 27.0765L18.1638 27.6265C18.315 27.6677 18.48 27.6953 18.6313 27.7228Z" fill="white"/>
<path d="M23.6088 4.41238L21.3125 3.87613C16.72 2.78988 13.9838 3.68363 12.375 7.01113C11.9625 7.84988 11.6325 8.86738 11.3575 10.0361L10.01 15.7974C8.6625 21.5449 10.4363 24.3774 16.17 25.7386L18.48 26.2886C19.2775 26.4811 20.02 26.6049 20.7075 26.6599C24.9975 27.0724 27.28 25.0649 28.435 20.1011L29.7825 14.3536C31.13 8.60613 29.37 5.75988 23.6088 4.41238Z" fill="white"/>
</svg>
