<svg width="49" height="48" viewBox="0 0 49 48" fill="none" xmlns="http://www.w3.org/2000/svg">
<g clip-path="url(#clip0_9_324)">
<path d="M48.5223 24.5466C48.5223 22.9155 48.3873 21.2757 48.0992 19.6711H24.99V28.9107H38.2235C37.6744 31.8906 35.9099 34.5267 33.3262 36.2018V42.197H41.2213C45.8576 38.018 48.5223 31.8465 48.5223 24.5466Z" fill="#4285F4"/>
<path d="M24.99 47.9891C31.5977 47.9891 37.1702 45.8644 41.2303 42.1968L33.3352 36.2016C31.1386 37.6651 28.3029 38.4939 24.999 38.4939C18.6073 38.4939 13.1878 34.2708 11.2433 28.5931H3.09615V34.7734C7.25526 42.8756 15.7265 47.9891 24.99 47.9891Z" fill="#34A853"/>
<path d="M11.2344 28.5933C10.2081 25.6133 10.2081 22.3865 11.2344 19.4066V13.2263H3.09624C-0.378686 20.0061 -0.378686 27.9938 3.09624 34.7736L11.2344 28.5933Z" fill="#FBBC04"/>
<path d="M24.99 9.49686C28.4829 9.44397 31.8588 10.7312 34.3885 13.0939L41.3833 6.24362C36.9542 2.17045 31.0756 -0.0689142 24.99 0.00161691C15.7265 0.00161691 7.25526 5.11512 3.09615 13.2262L11.2343 19.4065C13.1698 13.7199 18.5983 9.49686 24.99 9.49686Z" fill="#EA4335"/>
</g>
<defs>
<clipPath id="clip0_9_324">
<rect width="48.8481" height="47.8387" fill="white" transform="scale(1.00311)"/>
</clipPath>
</defs>
</svg>
