<svg width="34" height="37" viewBox="0 0 34 37" fill="none" xmlns="http://www.w3.org/2000/svg">
<path d="M2.83284 19.2786H26.9159" stroke="black" stroke-width="1.5" stroke-miterlimit="10" stroke-linecap="round" stroke-linejoin="round"/>
<path d="M26.9159 15.7164V26.6476C26.8734 31.0048 25.7685 32.1055 21.561 32.1055H8.18779C3.9095 32.1055 2.83284 30.9589 2.83284 26.403V15.7164C2.83284 11.5886 3.72533 10.2585 7.0828 10.0445C7.42279 10.0292 7.79113 10.0139 8.18779 10.0139H21.561C25.8393 10.0139 26.9159 11.1605 26.9159 15.7164Z" stroke="black" stroke-width="1.5" stroke-linecap="round" stroke-linejoin="round"/>
<path d="M31.1662 10.289V20.9755C31.1662 25.1034 30.2737 26.4335 26.9162 26.6475V15.7163C26.9162 11.1604 25.8396 10.0138 21.5613 10.0138H8.18808C7.79141 10.0138 7.42308 10.0291 7.08309 10.0444C7.12559 5.6872 8.23057 4.58644 12.438 4.58644H25.8112C30.0895 4.58644 31.1662 5.73306 31.1662 10.289Z" stroke="black" stroke-width="1.5" stroke-linecap="round" stroke-linejoin="round"/>
<path d="M7.43694 27.2285H9.87359M12.9052 27.2285H17.7785" stroke="black" stroke-width="1.5" stroke-miterlimit="10" stroke-linecap="round" stroke-linejoin="round"/>
</svg>
