<svg width="33" height="33" viewBox="0 0 33 33" fill="none" xmlns="http://www.w3.org/2000/svg">
<path d="M15.8125 28.875C17.5279 28.875 19.2265 28.5371 20.8113 27.8807C22.3961 27.2242 23.8361 26.262 25.0491 25.0491C26.262 23.8361 27.2242 22.3961 27.8807 20.8113C28.5371 19.2265 28.875 17.5279 28.875 15.8125C28.875 14.0971 28.5371 12.3985 27.8807 10.8137C27.2242 9.22888 26.262 7.78888 25.0491 6.57592C23.8361 5.36295 22.3961 4.40078 20.8113 3.74432C19.2265 3.08787 17.5279 2.75 15.8125 2.75C12.3481 2.75 9.02561 4.12622 6.57592 6.57592C4.12622 9.02561 2.75 12.3481 2.75 15.8125C2.75 19.2769 4.12622 22.5994 6.57592 25.0491C9.02561 27.4988 12.3481 28.875 15.8125 28.875ZM29.2875 30.2486C29.04 30.2486 28.7925 30.1524 28.6137 29.9736L26.0563 27.4161C25.8777 27.2346 25.7777 26.9901 25.7777 26.7355C25.7777 26.4809 25.8777 26.2364 26.0563 26.0549C26.4275 25.6836 27.0325 25.6836 27.4175 26.0549L29.975 28.6124C30.3462 28.9836 30.3462 29.5886 29.975 29.9736C29.7825 30.1524 29.535 30.2486 29.2875 30.2486Z" fill="black"/>
</svg>
