<svg width="33" height="33" viewBox="0 0 33 33" fill="none" xmlns="http://www.w3.org/2000/svg">
<path d="M28.1875 23.0312H25.0938V19.9375C25.0938 19.3738 24.6262 18.9062 24.0625 18.9062C23.4988 18.9062 23.0312 19.3738 23.0312 19.9375V23.0312H19.9375C19.3738 23.0312 18.9062 23.4988 18.9062 24.0625C18.9062 24.6262 19.3738 25.0938 19.9375 25.0938H23.0312V28.1875C23.0312 28.7512 23.4988 29.2188 24.0625 29.2188C24.6262 29.2188 25.0938 28.7512 25.0938 28.1875V25.0938H28.1875C28.7512 25.0938 29.2188 24.6262 29.2188 24.0625C29.2188 23.4988 28.7512 23.0312 28.1875 23.0312ZM30.25 11.715V5.4725C30.25 3.53375 29.37 2.75 27.1838 2.75H21.6287C19.4425 2.75 18.5625 3.53375 18.5625 5.4725V11.7013C18.5625 13.6538 19.4425 14.4237 21.6287 14.4237H27.1838C29.37 14.4375 30.25 13.6538 30.25 11.715ZM14.4375 11.715V5.4725C14.4375 3.53375 13.5575 2.75 11.3713 2.75H5.81625C3.63 2.75 2.75 3.53375 2.75 5.4725V11.7013C2.75 13.6538 3.63 14.4237 5.81625 14.4237H11.3713C13.5575 14.4375 14.4375 13.6538 14.4375 11.715ZM14.4375 27.1838V21.6287C14.4375 19.4425 13.5575 18.5625 11.3713 18.5625H5.81625C3.63 18.5625 2.75 19.4425 2.75 21.6287V27.1838C2.75 29.37 3.63 30.25 5.81625 30.25H11.3713C13.5575 30.25 14.4375 29.37 14.4375 27.1838Z" fill="white"/>
</svg>
