<svg width="36" height="36" viewBox="0 0 36 36" fill="none" xmlns="http://www.w3.org/2000/svg">
<path d="M29.955 15H5.955V27C5.955 31.5 7.455 33 11.955 33H23.955C28.455 33 29.955 31.5 29.955 27V15ZM32.25 10.5V12C32.25 13.65 31.455 15 29.25 15H6.75C4.455 15 3.75 13.65 3.75 12V10.5C3.75 8.85 4.455 7.5 6.75 7.5H29.25C31.455 7.5 32.25 8.85 32.25 10.5ZM17.46 7.5H9.18C8.93336 7.23249 8.8002 6.87967 8.8086 6.51591C8.81699 6.15215 8.96628 5.80585 9.225 5.55L11.355 3.42C11.6246 3.15344 11.9884 3.00394 12.3675 3.00394C12.7466 3.00394 13.1104 3.15344 13.38 3.42L17.46 7.5ZM26.805 7.5H18.525L22.605 3.42C22.8746 3.15344 23.2384 3.00394 23.6175 3.00394C23.9966 3.00394 24.3604 3.15344 24.63 3.42L26.76 5.55C27.3 6.09 27.315 6.945 26.805 7.5Z" stroke="black" stroke-width="1.5" stroke-miterlimit="10" stroke-linecap="round" stroke-linejoin="round"/>
<path d="M13.4102 15V22.71C13.4102 23.91 14.7302 24.615 15.7352 23.97L17.1452 23.04C17.3901 22.8787 17.6769 22.7927 17.9702 22.7927C18.2634 22.7927 18.5502 22.8787 18.7952 23.04L20.1302 23.94C20.3554 24.0902 20.6172 24.1764 20.8877 24.1894C21.1581 24.2024 21.427 24.1418 21.6656 24.014C21.9043 23.8862 22.1038 23.696 22.2428 23.4637C22.3819 23.2314 22.4553 22.9657 22.4552 22.695V15H13.4102Z" stroke="black" stroke-width="1.5" stroke-miterlimit="10" stroke-linecap="round" stroke-linejoin="round"/>
</svg>
