<svg width="33" height="33" viewBox="0 0 33 33" fill="none" xmlns="http://www.w3.org/2000/svg">
<path d="M22.605 4.26526C20.1163 4.26526 17.8888 5.47526 16.5 7.33151C15.7907 6.38113 14.8696 5.60917 13.8099 5.07691C12.7501 4.54466 11.5809 4.26675 10.395 4.26526C6.17375 4.26526 2.75 7.70276 2.75 11.9515C2.75 13.5878 3.01125 15.1003 3.465 16.5028C5.6375 23.3778 12.3337 27.489 15.6475 28.6165C16.115 28.7815 16.885 28.7815 17.3525 28.6165C20.6663 27.489 27.3625 23.3778 29.535 16.5028C29.9887 15.1003 30.25 13.5878 30.25 11.9515C30.25 7.70276 26.8263 4.26526 22.605 4.26526Z" fill="black"/>
</svg>
