<svg width="34" height="37" viewBox="0 0 34 37" fill="none" xmlns="http://www.w3.org/2000/svg">
<path d="M31.1662 12.9951C31.1664 14.3672 30.9033 15.7245 30.3934 16.9814C29.8835 18.2384 29.138 19.3677 28.2038 20.2984C27.2695 21.2291 26.1668 21.9409 24.9651 22.389C23.7634 22.837 22.4887 23.0117 21.2213 22.9019C21.044 20.5492 20.0975 18.3411 18.5509 16.672C17.0043 15.0029 14.9582 13.9814 12.7781 13.7901C12.681 12.4571 12.8341 11.1166 13.2284 9.84902C13.6227 8.5814 14.25 7.41269 15.0727 6.41288C15.8954 5.41307 16.8966 4.60272 18.0163 4.03035C19.1361 3.45799 20.3514 3.13538 21.5894 3.08186C22.8274 3.02833 24.0627 3.24499 25.2213 3.71885C26.3799 4.19271 27.438 4.91404 28.3321 5.83962C29.2263 6.76521 29.9382 7.87602 30.4252 9.10553C30.9122 10.335 31.1642 11.658 31.1662 12.9951Z" stroke="black" stroke-width="1.5" stroke-linecap="round" stroke-linejoin="round"/>
<path d="M21.2493 23.697C21.2493 26.3325 20.2792 28.8602 18.5523 30.7238C16.8254 32.5874 14.4833 33.6344 12.0411 33.6344C9.5989 33.6344 7.25675 32.5874 5.52987 30.7238C3.80299 28.8602 2.83284 26.3325 2.83284 23.697C2.83284 21.0614 3.80299 18.5338 5.52987 16.6702C7.25675 14.8065 9.5989 13.7596 12.0411 13.7596C14.4833 13.7596 16.8254 14.8065 18.5523 16.6702C20.2792 18.5338 21.2493 21.0614 21.2493 23.697Z" stroke="black" stroke-width="1.5" stroke-linecap="round" stroke-linejoin="round"/>
<path d="M10.7945 22.3516L12.0411 19.8748L13.2878 22.3516L15.5828 23.6969L13.2878 25.0423L12.0411 27.519L10.7945 25.0423L8.49951 23.6969L10.7945 22.3516Z" stroke="black" stroke-width="1.5" stroke-linecap="round" stroke-linejoin="round"/>
</svg>
