<svg width="45" height="44" viewBox="0 0 45 44" fill="none" xmlns="http://www.w3.org/2000/svg">
<path d="M12.3816 29.6019C12.2058 29.43 11.9674 29.3335 11.7188 29.3335C11.4702 29.3335 11.2318 29.43 11.056 29.6019L9.8438 30.7871L8.63161 29.6019C8.54513 29.5143 8.44168 29.4445 8.3273 29.3964C8.21292 29.3484 8.0899 29.3231 7.96542 29.3221C7.84094 29.321 7.71749 29.3442 7.60228 29.3903C7.48706 29.4364 7.38239 29.5044 7.29436 29.5905C7.20634 29.6766 7.13673 29.7789 7.08959 29.8916C7.04245 30.0042 7.01873 30.1249 7.01981 30.2467C7.02089 30.3684 7.04675 30.4886 7.09589 30.6005C7.14502 30.7123 7.21644 30.8135 7.30598 30.898L8.51817 32.0833L7.30598 33.2685C7.21644 33.3531 7.14502 33.4542 7.09589 33.5661C7.04675 33.6779 7.02089 33.7982 7.01981 33.9199C7.01873 34.0416 7.04245 34.1623 7.08959 34.275C7.13673 34.3876 7.20634 34.49 7.29436 34.5761C7.38239 34.6621 7.48706 34.7302 7.60228 34.7763C7.71749 34.8224 7.84094 34.8456 7.96542 34.8445C8.0899 34.8435 8.21292 34.8182 8.3273 34.7701C8.44168 34.7221 8.54513 34.6523 8.63161 34.5647L9.8438 33.3794L11.056 34.5647C11.2328 34.7317 11.4696 34.8241 11.7154 34.822C11.9612 34.8199 12.1964 34.7235 12.3702 34.5535C12.544 34.3836 12.6426 34.1537 12.6447 33.9133C12.6469 33.673 12.5524 33.4414 12.3816 33.2685L11.1694 32.0833L12.3816 30.898C12.5574 30.7261 12.6561 30.493 12.6561 30.2499C12.6561 30.0069 12.5574 29.7738 12.3816 29.6019ZM20.8191 29.6019C20.6433 29.43 20.4049 29.3335 20.1563 29.3335C19.9077 29.3335 19.6693 29.43 19.4935 29.6019L18.2813 30.7871L17.0691 29.6019C16.8923 29.4349 16.6555 29.3425 16.4097 29.3446C16.1639 29.3467 15.9287 29.4431 15.7549 29.613C15.5811 29.783 15.4825 30.0129 15.4804 30.2532C15.4782 30.4936 15.5727 30.7251 15.7435 30.898L16.9557 32.0833L15.7435 33.2685C15.6539 33.3531 15.5825 33.4542 15.5334 33.5661C15.4843 33.6779 15.4584 33.7982 15.4573 33.9199C15.4562 34.0416 15.4799 34.1623 15.5271 34.275C15.5742 34.3876 15.6438 34.49 15.7319 34.5761C15.8199 34.6621 15.9246 34.7302 16.0398 34.7763C16.155 34.8224 16.2784 34.8456 16.4029 34.8445C16.5274 34.8435 16.6504 34.8182 16.7648 34.7701C16.8792 34.7221 16.9826 34.6523 17.0691 34.5647L18.2813 33.3794L19.4935 34.5647C19.6703 34.7317 19.9071 34.8241 20.1529 34.822C20.3987 34.8199 20.6339 34.7235 20.8077 34.5535C20.9815 34.3836 21.0801 34.1537 21.0822 33.9133C21.0844 33.673 20.9899 33.4414 20.8191 33.2685L19.6069 32.0833L20.8191 30.898C20.9949 30.7261 21.0936 30.493 21.0936 30.2499C21.0936 30.0069 20.9949 29.7738 20.8191 29.6019ZM29.2566 29.6019C29.0808 29.43 28.8424 29.3335 28.5938 29.3335C28.3452 29.3335 28.1068 29.43 27.931 29.6019L26.7188 30.7871L25.5066 29.6019C25.3298 29.4349 25.093 29.3425 24.8472 29.3446C24.6014 29.3467 24.3662 29.4431 24.1924 29.613C24.0186 29.783 23.92 30.0129 23.9179 30.2532C23.9157 30.4936 24.0102 30.7251 24.181 30.898L25.3932 32.0833L24.181 33.2685C24.0914 33.3531 24.02 33.4542 23.9709 33.5661C23.9218 33.6779 23.8959 33.7982 23.8948 33.9199C23.8937 34.0416 23.9174 34.1623 23.9646 34.275C24.0117 34.3876 24.0813 34.49 24.1694 34.5761C24.2574 34.6621 24.3621 34.7302 24.4773 34.7763C24.5925 34.8224 24.7159 34.8456 24.8404 34.8445C24.9649 34.8435 25.0879 34.8182 25.2023 34.7701C25.3167 34.7221 25.4201 34.6523 25.5066 34.5647L26.7188 33.3794L27.931 34.5647C28.1078 34.7317 28.3446 34.8241 28.5904 34.822C28.8362 34.8199 29.0714 34.7235 29.2452 34.5535C29.419 34.3836 29.5176 34.1537 29.5197 33.9133C29.5219 33.673 29.4274 33.4414 29.2566 33.2685L28.0444 32.0833L29.2566 30.898C29.4324 30.7261 29.5311 30.493 29.5311 30.2499C29.5311 30.0069 29.4324 29.7738 29.2566 29.6019ZM36.4819 32.0833L37.6941 30.898C37.8649 30.7251 37.9594 30.4936 37.9572 30.2532C37.9551 30.0129 37.8565 29.783 37.6827 29.613C37.5089 29.4431 37.2737 29.3467 37.0279 29.3446C36.7821 29.3425 36.5453 29.4349 36.3685 29.6019L35.1563 30.7871L33.9441 29.6019C33.7673 29.4349 33.5305 29.3425 33.2847 29.3446C33.0389 29.3467 32.8037 29.4431 32.6299 29.613C32.4561 29.783 32.3575 30.0129 32.3554 30.2532C32.3532 30.4936 32.4477 30.7251 32.6185 30.898L33.8307 32.0833L32.6185 33.2685C32.5289 33.3531 32.4575 33.4542 32.4084 33.5661C32.3593 33.6779 32.3334 33.7982 32.3323 33.9199C32.3312 34.0416 32.355 34.1623 32.4021 34.275C32.4492 34.3876 32.5188 34.49 32.6069 34.5761C32.6949 34.6621 32.7996 34.7302 32.9148 34.7763C33.03 34.8224 33.1534 34.8456 33.2779 34.8445C33.4024 34.8435 33.5254 34.8182 33.6398 34.7701C33.7542 34.7221 33.8576 34.6523 33.9441 34.5647L35.1563 33.3794L36.3685 34.5647C36.5453 34.7317 36.7821 34.8241 37.0279 34.822C37.2737 34.8199 37.5089 34.7235 37.6827 34.5535C37.8565 34.3836 37.9551 34.1537 37.9572 33.9133C37.9594 33.673 37.8649 33.4414 37.6941 33.2685L36.4819 32.0833ZM11.7188 36.6666H7.9688C7.72016 36.6666 7.4817 36.7632 7.30588 36.9351C7.13007 37.107 7.0313 37.3402 7.0313 37.5833C7.0313 37.8264 7.13007 38.0596 7.30588 38.2315C7.4817 38.4034 7.72016 38.4999 7.9688 38.4999H11.7188C11.9674 38.4999 12.2059 38.4034 12.3817 38.2315C12.5575 38.0596 12.6563 37.8264 12.6563 37.5833C12.6563 37.3402 12.5575 37.107 12.3817 36.9351C12.2059 36.7632 11.9674 36.6666 11.7188 36.6666ZM20.1563 36.6666H16.4063C16.1577 36.6666 15.9192 36.7632 15.7434 36.9351C15.5676 37.107 15.4688 37.3402 15.4688 37.5833C15.4688 37.8264 15.5676 38.0596 15.7434 38.2315C15.9192 38.4034 16.1577 38.4999 16.4063 38.4999H20.1563C20.4049 38.4999 20.6434 38.4034 20.8192 38.2315C20.995 38.0596 21.0938 37.8264 21.0938 37.5833C21.0938 37.3402 20.995 37.107 20.8192 36.9351C20.6434 36.7632 20.4049 36.6666 20.1563 36.6666ZM28.5938 36.6666H24.8438C24.5952 36.6666 24.3567 36.7632 24.1809 36.9351C24.0051 37.107 23.9063 37.3402 23.9063 37.5833C23.9063 37.8264 24.0051 38.0596 24.1809 38.2315C24.3567 38.4034 24.5952 38.4999 24.8438 38.4999H28.5938C28.8424 38.4999 29.0809 38.4034 29.2567 38.2315C29.4325 38.0596 29.5313 37.8264 29.5313 37.5833C29.5313 37.3402 29.4325 37.107 29.2567 36.9351C29.0809 36.7632 28.8424 36.6666 28.5938 36.6666ZM37.0313 36.6666H33.2813C33.0327 36.6666 32.7942 36.7632 32.6184 36.9351C32.4426 37.107 32.3438 37.3402 32.3438 37.5833C32.3438 37.8264 32.4426 38.0596 32.6184 38.2315C32.7942 38.4034 33.0327 38.4999 33.2813 38.4999H37.0313C37.2799 38.4999 37.5184 38.4034 37.6942 38.2315C37.87 38.0596 37.9688 37.8264 37.9688 37.5833C37.9688 37.3402 37.87 37.107 37.6942 36.9351C37.5184 36.7632 37.2799 36.6666 37.0313 36.6666ZM30.5157 14.3H28.7813V12.4666C28.7813 10.8377 28.1195 9.27559 26.9416 8.1238C25.7636 6.97202 24.1659 6.32495 22.5 6.32495C20.8342 6.32495 19.2365 6.97202 18.0585 8.1238C16.8806 9.27559 16.2188 10.8377 16.2188 12.4666V14.3H14.4844C14.361 14.2987 14.2385 14.3216 14.1242 14.3672C14.0099 14.4129 13.906 14.4803 13.8187 14.5657C13.7314 14.6511 13.6624 14.7526 13.6157 14.8644C13.5691 14.9761 13.5457 15.0959 13.5469 15.2166V23.8333C13.5474 24.5625 13.8439 25.2617 14.3712 25.7773C14.8986 26.2929 15.6137 26.5828 16.3594 26.5833H28.6407C29.3864 26.5828 30.1015 26.2929 30.6289 25.7773C31.1562 25.2617 31.4527 24.5625 31.4532 23.8333V15.2166C31.4544 15.0959 31.431 14.9761 31.3844 14.8644C31.3377 14.7526 31.2687 14.6511 31.1814 14.5657C31.0941 14.4803 30.9902 14.4129 30.8759 14.3672C30.7616 14.3216 30.6391 14.2987 30.5157 14.3ZM18.0938 12.4666C18.0938 11.324 18.558 10.2281 19.3844 9.42017C20.2107 8.6122 21.3314 8.15828 22.5 8.15828C23.6687 8.15828 24.7894 8.6122 25.6157 9.42017C26.4421 10.2281 26.9063 11.324 26.9063 12.4666V14.3H18.0938V12.4666Z" fill="black"/>
</svg>
