<svg width="33" height="33" viewBox="0 0 33 33" fill="none" xmlns="http://www.w3.org/2000/svg">
<path d="M28.875 7.21875H4.125C3.56125 7.21875 3.09375 6.75125 3.09375 6.1875C3.09375 5.62375 3.56125 5.15625 4.125 5.15625H28.875C29.4387 5.15625 29.9062 5.62375 29.9062 6.1875C29.9062 6.75125 29.4387 7.21875 28.875 7.21875ZM28.875 14.0938H4.125C3.56125 14.0938 3.09375 13.6263 3.09375 13.0625C3.09375 12.4988 3.56125 12.0312 4.125 12.0312H28.875C29.4387 12.0312 29.9062 12.4988 29.9062 13.0625C29.9062 13.6263 29.4387 14.0938 28.875 14.0938ZM28.875 20.9688H4.125C3.56125 20.9688 3.09375 20.5013 3.09375 19.9375C3.09375 19.3737 3.56125 18.9062 4.125 18.9062H28.875C29.4387 18.9062 29.9062 19.3737 29.9062 19.9375C29.9062 20.5013 29.4387 20.9688 28.875 20.9688ZM28.875 27.8438H4.125C3.56125 27.8438 3.09375 27.3762 3.09375 26.8125C3.09375 26.2488 3.56125 25.7812 4.125 25.7812H28.875C29.4387 25.7812 29.9062 26.2488 29.9062 26.8125C29.9062 27.3762 29.4387 27.8438 28.875 27.8438Z" fill="black"/>
</svg>
