<svg width="33" height="33" viewBox="0 0 33 33" fill="none" xmlns="http://www.w3.org/2000/svg">
<path d="M30.25 16.5C30.25 8.92375 24.0763 2.75 16.5 2.75C8.92375 2.75 2.75 8.92375 2.75 16.5C2.75 20.4875 4.46875 24.0763 7.19125 26.5925C7.19125 26.6063 7.19125 26.6063 7.1775 26.62C7.315 26.7575 7.48 26.8675 7.6175 26.9912C7.7 27.06 7.76875 27.1287 7.85125 27.1838C8.09875 27.39 8.37375 27.5825 8.635 27.775L8.91 27.9675C9.17125 28.1462 9.44625 28.3113 9.735 28.4625C9.83125 28.5175 9.94125 28.5863 10.0375 28.6413C10.3125 28.7925 10.6012 28.93 10.9037 29.0537C11.0138 29.1087 11.1237 29.1637 11.2338 29.205C11.5363 29.3288 11.8387 29.4387 12.1412 29.535C12.2513 29.5763 12.3612 29.6175 12.4712 29.645C12.8012 29.7412 13.1313 29.8237 13.4613 29.9062C13.5575 29.9338 13.6538 29.9612 13.7638 29.975C14.1488 30.0575 14.5337 30.1125 14.9325 30.1538C14.9875 30.1538 15.0425 30.1675 15.0975 30.1813C15.565 30.2225 16.0325 30.25 16.5 30.25C16.9675 30.25 17.435 30.2225 17.8888 30.1813C17.9438 30.1813 17.9987 30.1675 18.0538 30.1538C18.4525 30.1125 18.8375 30.0575 19.2225 29.975C19.3187 29.9612 19.415 29.92 19.525 29.9062C19.855 29.8237 20.1987 29.755 20.515 29.645C20.625 29.6037 20.735 29.5625 20.845 29.535C21.1475 29.425 21.4637 29.3288 21.7525 29.205C21.8625 29.1637 21.9725 29.1087 22.0825 29.0537C22.3713 28.93 22.66 28.7925 22.9488 28.6413C23.0588 28.5863 23.155 28.5175 23.2512 28.4625C23.5262 28.2975 23.8013 28.1462 24.0763 27.9675C24.1725 27.9125 24.255 27.8438 24.3512 27.775C24.6262 27.5825 24.8875 27.39 25.135 27.1838C25.2175 27.115 25.2863 27.0462 25.3688 26.9912C25.52 26.8675 25.6713 26.7438 25.8088 26.62C25.8088 26.6063 25.8088 26.6063 25.795 26.5925C28.5312 24.0763 30.25 20.4875 30.25 16.5ZM23.2925 23.3337C19.5662 20.8312 13.4613 20.8312 9.7075 23.3337C9.1025 23.7325 8.6075 24.2 8.195 24.7087C6.02912 22.5256 4.81338 19.5752 4.8125 16.5C4.8125 10.0512 10.0512 4.8125 16.5 4.8125C22.9487 4.8125 28.1875 10.0512 28.1875 16.5C28.1875 19.69 26.895 22.5912 24.805 24.7087C24.4063 24.2 23.8975 23.7325 23.2925 23.3337Z" fill="black"/>
<path d="M16.5 9.52875C13.6538 9.52875 11.3438 11.8387 11.3438 14.685C11.3438 17.4762 13.53 19.745 16.4312 19.8275H16.6788C18.0135 19.7836 19.2789 19.2226 20.2077 18.2631C21.1365 17.3035 21.6559 16.0205 21.6562 14.685C21.6562 11.8387 19.3462 9.52875 16.5 9.52875Z" fill="black"/>
</svg>
